<svg width="168" height="27" viewBox="0 0 168 27" fill="none" xmlns="http://www.w3.org/2000/svg">
<path d="M12.7933 3.85958C13.0931 2.9393 14.3951 2.9393 14.6949 3.85958L16.446 9.23398C16.5801 9.64561 16.9639 9.92418 17.3968 9.92418H23.0576C24.0269 9.92418 24.4293 11.1652 23.6443 11.734L19.0694 15.0486C18.7179 15.3033 18.5709 15.7555 18.7053 16.1682L20.4539 21.5349C20.7539 22.4557 19.7006 23.2227 18.9164 22.6544L14.3308 19.3321C13.9808 19.0784 13.5074 19.0784 13.1574 19.3321L8.57183 22.6544C7.78757 23.2227 6.73428 22.4557 7.0343 21.5348L8.78288 16.1682C8.91733 15.7555 8.77025 15.3033 8.41879 15.0486L3.84392 11.734C3.05891 11.1652 3.46124 9.92418 4.43064 9.92418H10.0914C10.5243 9.92418 10.9081 9.64561 11.0422 9.23398L12.7933 3.85958Z" fill="#070707"/>
<path d="M47.8656 3.85958C48.1654 2.9393 49.4673 2.9393 49.7672 3.85958L51.5183 9.23398C51.6524 9.64561 52.0361 9.92418 52.4691 9.92418H58.1298C59.0992 9.92418 59.5015 11.1652 58.7165 11.734L54.1417 15.0486C53.7902 15.3033 53.6431 15.7555 53.7776 16.1682L55.5261 21.5349C55.8262 22.4557 54.7729 23.2227 53.9886 22.6544L49.4031 19.3321C49.053 19.0784 48.5797 19.0784 48.2296 19.3321L43.6441 22.6544C42.8598 23.2227 41.8065 22.4557 42.1066 21.5348L43.8551 16.1682C43.9896 15.7555 43.8425 15.3033 43.4911 15.0486L38.9162 11.734C38.1312 11.1652 38.5335 9.92418 39.5029 9.92418H45.1637C45.5966 9.92418 45.9803 9.64561 46.1145 9.23398L47.8656 3.85958Z" fill="#070707"/>
<path d="M82.9378 3.85958C83.2377 2.9393 84.5396 2.9393 84.8394 3.85958L86.5905 9.23398C86.7246 9.64561 87.1084 9.92418 87.5413 9.92418H93.2021C94.1715 9.92418 94.5738 11.1652 93.7888 11.734L89.2139 15.0486C88.8625 15.3033 88.7154 15.7555 88.8498 16.1682L90.5984 21.5349C90.8984 22.4557 89.8451 23.2227 89.0609 22.6544L84.4753 19.3321C84.1253 19.0784 83.6519 19.0784 83.3019 19.3321L78.7164 22.6544C77.9321 23.2227 76.8788 22.4557 77.1788 21.5348L78.9274 16.1682C79.0619 15.7555 78.9148 15.3033 78.5633 15.0486L73.9884 11.734C73.2034 11.1652 73.6058 9.92418 74.5752 9.92418H80.2359C80.6688 9.92418 81.0526 9.64561 81.1867 9.23398L82.9378 3.85958Z" fill="#070707"/>
<path d="M118.01 3.85958C118.31 2.9393 119.612 2.9393 119.912 3.85958L121.663 9.23398C121.797 9.64561 122.181 9.92418 122.614 9.92418H128.274C129.244 9.92418 129.646 11.1652 128.861 11.734L124.286 15.0486C123.935 15.3033 123.788 15.7555 123.922 16.1682L125.671 21.5349C125.971 22.4557 124.917 23.2227 124.133 22.6544L119.548 19.3321C119.198 19.0784 118.724 19.0784 118.374 19.3321L113.789 22.6544C113.004 23.2227 111.951 22.4557 112.251 21.5348L114 16.1682C114.134 15.7555 113.987 15.3033 113.636 15.0486L109.061 11.734C108.276 11.1652 108.678 9.92418 109.647 9.92418H115.308C115.741 9.92418 116.125 9.6456 116.259 9.23398L118.01 3.85958Z" fill="#070707"/>
<path d="M153.082 3.85958C153.382 2.9393 154.684 2.9393 154.984 3.85958L156.735 9.23398C156.869 9.64561 157.253 9.92418 157.686 9.92418H163.347C164.316 9.92418 164.718 11.1652 163.933 11.734L159.358 15.0486C159.007 15.3033 158.86 15.7555 158.994 16.1682L160.743 21.5349C161.043 22.4557 159.99 23.2227 159.205 22.6544L154.62 19.3321C154.27 19.0784 153.796 19.0784 153.446 19.3321L148.861 22.6544C148.077 23.2227 147.023 22.4557 147.323 21.5348L149.072 16.1682C149.206 15.7555 149.059 15.3033 148.708 15.0486L144.133 11.734C143.348 11.1652 143.75 9.92418 144.72 9.92418H150.38C150.813 9.92418 151.197 9.64561 151.331 9.23398L153.082 3.85958Z" fill="#E5E5E5"/>
</svg>
